<svg width="29" height="12" viewBox="0 0 29 12" fill="none" xmlns="http://www.w3.org/2000/svg">
<path d="M5.76 0.736151C7.06 0.736151 8.14 1.06615 9 1.72615C9.86 2.38615 10.44 3.28115 10.74 4.41115H8.925C8.675 3.77115 8.275 3.26615 7.725 2.89615C7.185 2.51615 6.52 2.32615 5.73 2.32615C5.1 2.32615 4.535 2.48115 4.035 2.79115C3.545 3.10115 3.155 3.54615 2.865 4.12615C2.585 4.69615 2.445 5.36615 2.445 6.13615C2.445 6.89615 2.585 7.56615 2.865 8.14615C3.155 8.71615 3.545 9.15615 4.035 9.46615C4.535 9.77615 5.1 9.93115 5.73 9.93115C6.52 9.93115 7.185 9.74615 7.725 9.37615C8.275 8.99615 8.675 8.49115 8.925 7.86115H10.74C10.44 8.99115 9.86 9.88615 9 10.5462C8.14 11.1962 7.06 11.5212 5.76 11.5212C4.76 11.5212 3.875 11.2962 3.105 10.8462C2.335 10.3862 1.74 9.75115 1.32 8.94115C0.9 8.12115 0.69 7.18615 0.69 6.13615C0.69 5.08615 0.9 4.15615 1.32 3.34615C1.74 2.52615 2.335 1.88615 3.105 1.42615C3.875 0.966151 4.76 0.736151 5.76 0.736151ZM19.4061 8.61115C19.4061 9.13115 19.2811 9.61615 19.0311 10.0662C18.7811 10.5062 18.4011 10.8612 17.8911 11.1312C17.3811 11.4012 16.7561 11.5362 16.0161 11.5362C15.2961 11.5362 14.6511 11.4112 14.0811 11.1612C13.5111 10.9012 13.0561 10.5412 12.7161 10.0812C12.3761 9.62115 12.1811 9.09115 12.1311 8.49115H13.9611C14.0111 8.95115 14.2061 9.34615 14.5461 9.67615C14.8961 10.0062 15.3611 10.1712 15.9411 10.1712C16.4611 10.1712 16.8611 10.0312 17.1411 9.75115C17.4311 9.47115 17.5761 9.11115 17.5761 8.67115C17.5761 8.29115 17.4711 7.98115 17.2611 7.74115C17.0511 7.49115 16.7911 7.29615 16.4811 7.15615C16.1711 7.01615 15.7461 6.85615 15.2061 6.67615C14.5461 6.46615 14.0061 6.25615 13.5861 6.04615C13.1761 5.83615 12.8261 5.53115 12.5361 5.13115C12.2461 4.73115 12.1011 4.20615 12.1011 3.55615C12.1011 2.98615 12.2411 2.48615 12.5211 2.05615C12.8011 1.62615 13.2011 1.29615 13.7211 1.06615C14.2411 0.826152 14.8411 0.706152 15.5211 0.706152C16.6011 0.706152 17.4561 0.966152 18.0861 1.48615C18.7261 2.00615 19.0911 2.68615 19.1811 3.52615H17.3361C17.2661 3.12615 17.0761 2.78615 16.7661 2.50615C16.4661 2.21615 16.0511 2.07115 15.5211 2.07115C15.0411 2.07115 14.6561 2.19615 14.3661 2.44615C14.0761 2.68615 13.9311 3.03615 13.9311 3.49615C13.9311 3.85615 14.0311 4.15615 14.2311 4.39615C14.4311 4.62615 14.6811 4.81115 14.9811 4.95115C15.2911 5.08115 15.7111 5.23615 16.2411 5.41615C16.9111 5.62615 17.4561 5.84115 17.8761 6.06115C18.3061 6.27115 18.6661 6.58115 18.9561 6.99115C19.2561 7.40115 19.4061 7.94115 19.4061 8.61115ZM28.078 8.61115C28.078 9.13115 27.953 9.61615 27.703 10.0662C27.453 10.5062 27.073 10.8612 26.563 11.1312C26.053 11.4012 25.428 11.5362 24.688 11.5362C23.968 11.5362 23.323 11.4112 22.753 11.1612C22.183 10.9012 21.728 10.5412 21.388 10.0812C21.048 9.62115 20.853 9.09115 20.803 8.49115H22.633C22.683 8.95115 22.878 9.34615 23.218 9.67615C23.568 10.0062 24.033 10.1712 24.613 10.1712C25.133 10.1712 25.533 10.0312 25.813 9.75115C26.103 9.47115 26.248 9.11115 26.248 8.67115C26.248 8.29115 26.143 7.98115 25.933 7.74115C25.723 7.49115 25.463 7.29615 25.153 7.15615C24.843 7.01615 24.418 6.85615 23.878 6.67615C23.218 6.46615 22.678 6.25615 22.258 6.04615C21.848 5.83615 21.498 5.53115 21.208 5.13115C20.918 4.73115 20.773 4.20615 20.773 3.55615C20.773 2.98615 20.913 2.48615 21.193 2.05615C21.473 1.62615 21.873 1.29615 22.393 1.06615C22.913 0.826152 23.513 0.706152 24.193 0.706152C25.273 0.706152 26.128 0.966152 26.758 1.48615C27.398 2.00615 27.763 2.68615 27.853 3.52615H26.008C25.938 3.12615 25.748 2.78615 25.438 2.50615C25.138 2.21615 24.723 2.07115 24.193 2.07115C23.713 2.07115 23.328 2.19615 23.038 2.44615C22.748 2.68615 22.603 3.03615 22.603 3.49615C22.603 3.85615 22.703 4.15615 22.903 4.39615C23.103 4.62615 23.353 4.81115 23.653 4.95115C23.963 5.08115 24.383 5.23615 24.913 5.41615C25.583 5.62615 26.128 5.84115 26.548 6.06115C26.978 6.27115 27.338 6.58115 27.628 6.99115C27.928 7.40115 28.078 7.94115 28.078 8.61115Z" fill="#253858"/>
</svg>
